HIERARCHY
ROOT Hips
{
  OFFSET -4.35178 90.3298 111.633
  CHANNELS 6 Xposition Yposition Zposition Zrotation Xrotation Yrotation
  JOINT LeftUpLeg
  {
    OFFSET 0.103456 1.85784 10.5485
    CHANNELS 6 Xposition Yposition Zposition Zrotation Xrotation Yrotation
    JOINT LeftLeg
    {
      OFFSET 43.5 -4.2e-05 0
      CHANNELS 6 Xposition Yposition Zposition Zrotation Xrotation Yrotation
      JOINT LeftFoot
      {
        OFFSET 42.3722 1.9e-05 0
        CHANNELS 6 Xposition Yposition Zposition Zrotation Xrotation Yrotation
        JOINT LeftToe
        {
          OFFSET 17.3 0 0
          CHANNELS 6 Xposition Yposition Zposition Zrotation Xrotation Yrotation
          End Site
          {
            OFFSET 0 0 0
          }
        }
      }
    }
  }
  JOINT RightUpLeg
  {
    OFFSET 0.103456 1.85782 -10.5485
    CHANNELS 6 Xposition Yposition Zposition Zrotation Xrotation Yrotation
    JOINT RightLeg
    {
      OFFSET 43.5 -2.7e-05 0
      CHANNELS 6 Xposition Yposition Zposition Zrotation Xrotation Yrotation
      JOINT RightFoot
      {
        OFFSET 42.3723 0 0
        CHANNELS 6 Xposition Yposition Zposition Zrotation Xrotation Yrotation
        JOINT RightToe
        {
          OFFSET 17.3 0 1.7e-05
          CHANNELS 6 Xposition Yposition Zposition Zrotation Xrotation Yrotation
          End Site
          {
            OFFSET 0 0 0
          }
        }
      }
    }
  }
  JOINT Spine
  {
    OFFSET 6.90197 -2.60373 0
    CHANNELS 6 Xposition Yposition Zposition Zrotation Xrotation Yrotation
    JOINT Spine1
    {
      OFFSET 12.5881 0 0
      CHANNELS 6 Xposition Yposition Zposition Zrotation Xrotation Yrotation
      JOINT Spine2
      {
        OFFSET 12.3432 -1.8e-05 0
        CHANNELS 6 Xposition Yposition Zposition Zrotation Xrotation Yrotation
        JOINT Neck
        {
          OFFSET 25.8329 2.3e-05 0
          CHANNELS 6 Xposition Yposition Zposition Zrotation Xrotation Yrotation
          JOINT Head
          {
            OFFSET 11.7666 0 0
            CHANNELS 6 Xposition Yposition Zposition Zrotation Xrotation Yrotation
            End Site
            {
              OFFSET 0 0 0
            }
          }
        }
        JOINT LeftShoulder
        {
          OFFSET 19.7459 -1.48035 6.0001
          CHANNELS 6 Xposition Yposition Zposition Zrotation Xrotation Yrotation
          JOINT LeftArm
          {
            OFFSET 11.2841 1.8e-05 -2e-05
            CHANNELS 6 Xposition Yposition Zposition Zrotation Xrotation Yrotation
            JOINT LeftForeArm
            {
              OFFSET 33 -1.3e-05 1.9e-05
              CHANNELS 6 Xposition Yposition Zposition Zrotation Xrotation Yrotation
              JOINT LeftHand
              {
                OFFSET 25.2 3.2e-05 1.1e-05
                CHANNELS 6 Xposition Yposition Zposition Zrotation Xrotation Yrotation
                End Site
                {
                  OFFSET 0 0 0
                }
              }
            }
          }
        }
        JOINT RightShoulder
        {
          OFFSET 19.7461 -1.48036 -6.00008
          CHANNELS 6 Xposition Yposition Zposition Zrotation Xrotation Yrotation
          JOINT RightArm
          {
            OFFSET 11.2841 0 0
            CHANNELS 6 Xposition Yposition Zposition Zrotation Xrotation Yrotation
            JOINT RightForeArm
            {
              OFFSET 33.0001 1.6e-05 0
              CHANNELS 6 Xposition Yposition Zposition Zrotation Xrotation Yrotation
              JOINT RightHand
              {
                OFFSET 25.1998 0.000123 0.000432
                CHANNELS 6 Xposition Yposition Zposition Zrotation Xrotation Yrotation
                End Site
                {
                  OFFSET 0 0 0
                }
              }
            }
          }
        }
      }
    }
  }
}
MOTION
Frames:	10
Frame Time:	0.0333333
-84.1415 89.0929 -123.945 -87.3008 2.67156 -177.325 0.103456 1.85784 10.5485 2.73891 -6.04329 177.92 43.5 -4.2e-05 1e-05 -12.3294 -8.23382 -1.15845 42.3722 1.9e-05 2.84217e-14 76.5927 -8.95394 7.47177 17.3 3.55271e-15 3e-06 21.4546 -1e-06 0.003093 0.103456 1.85782 -10.5485 9.20274 11.8717 174.659 43.5 -2.7e-05 4e-06 -1.42246 13.8645 3.51749 42.3723 1.42109e-14 1e-05 83.4528 23.7139 -16.5438 17.3 -6e-06 1.7e-05 21.4546 -1.9e-05 -0.003116 6.90197 -2.60373 -3e-06 7.66099 0.0798071 -0.343788 12.5881 1e-05 8e-06 5.30789 0.176287 -0.672937 12.3432 -1.8e-05 -5e-06 4.98885 0.211953 -0.670755 25.8329 2.3e-05 7e-06 8.68932 3.80618 -8.90353 11.7666 -8e-06 -6e-06 -25.8674 1.84208 11.2203 19.7459 -1.48035 6.0001 -177.855 5.99508 -96.6 11.2841 1.8e-05 -2e-05 21.3477 -26.3969 37.3117 33 -1.3e-05 1.9e-05 -14.3809 12.7384 -25.9295 25.2 3.2e-05 1.1e-05 0.852982 34.4123 -2.30786 19.7461 -1.48036 -6.00008 -172.823 -10.0171 85.4465 11.2841 -1.42109e-14 -1e-06 17.1956 17.8579 -18.2606 33.0001 1.6e-05 -1e-06 -20.8403 1.85568 23.8578 25.1998 0.000123 0.000432 4.45262 -14.2777 7.67156 
-84.1431 89.0946 -123.898 -87.3305 2.397 -177.288 0.103456 1.85784 10.5485 2.56458 -6.10323 177.919 43.5 -4.2e-05 1e-05 -12.4968 -8.11303 -1.10433 42.3722 1.9e-05 2.84217e-14 76.3908 -8.91153 7.34171 17.3 -7.10543e-15 3e-06 21.4546 -1e-06 0.003093 0.103456 1.85782 -10.5485 9.13132 11.7549 174.702 43.5 -2.7e-05 4e-06 -1.5171 13.9856 3.54106 42.3723 2.84217e-14 1e-05 83.6518 23.8818 -16.6834 17.3 -6e-06 1.7e-05 21.4546 -1.9e-05 -0.003116 6.90197 -2.60373 -3e-06 7.68679 0.108511 -0.402299 12.5881 1e-05 8e-06 5.35941 0.225386 -0.793836 12.3432 -1.8e-05 -5e-06 5.03998 0.254213 -0.794375 25.8329 2.3e-05 7e-06 8.56291 4.23652 -9.2773 11.7666 -8e-06 -6e-06 -26.0378 2.29247 11.5564 19.7459 -1.48035 6.0001 -177.484 6.36411 -96.1721 11.2841 1.8e-05 -2e-05 20.6333 -25.567 36.0532 33 -1.3e-05 1.9e-05 -15.4009 12.0463 -25.8062 25.2 3.2e-05 1.1e-05 1.30487 34.1228 -2.37795 19.7461 -1.48036 -6.00008 -173.306 -9.49534 85.1678 11.2841 -2.84217e-14 -1e-06 16.993 17.8609 -18.3834 33.0001 1.6e-05 -1e-06 -20.7076 1.69052 23.8867 25.1998 0.000123 0.000432 4.33352 -14.3429 7.66291 
-84.1443 89.096 -123.888 -87.34 2.35227 -177.282 0.103456 1.85784 10.5485 2.53341 -6.11961 177.929 43.5 -4.2e-05 1e-05 -12.4927 -8.09615 -1.10426 42.3722 1.9e-05 0 76.3486 -8.90289 7.31508 17.3 7.10543e-15 3e-06 21.4546 -1e-06 0.003093 0.103456 1.85782 -10.5485 9.14578 11.7269 174.694 43.5 -2.7e-05 4e-06 -1.44697 14.0198 3.54926 42.3723 -1.42109e-14 1e-05 83.6671 23.8986 -16.7286 17.3 -6e-06 1.7e-05 21.4546 -1.9e-05 -0.003116 6.90197 -2.60373 -3e-06 7.6838 0.129663 -0.407185 12.5881 1e-05 8e-06 5.35315 0.266774 -0.806712 12.3432 -1.8e-05 -5e-06 5.03315 0.294653 -0.809806 25.8329 2.3e-05 7e-06 8.58981 4.37581 -9.40281 11.7666 -8e-06 -6e-06 -25.8893 2.58283 11.527 19.7459 -1.48035 6.0001 -177.435 6.40244 -96.2143 11.2841 1.8e-05 -2e-05 20.5518 -25.5642 36.0367 33 -1.3e-05 1.9e-05 -15.4847 12.0746 -25.8236 25.2 3.2e-05 1.1e-05 1.29966 34.1518 -2.4335 19.7461 -1.48036 -6.00008 -173.382 -9.44101 85.1342 11.2841 0 -1e-06 17.0342 17.8785 -18.354 33.0001 1.6e-05 -1e-06 -20.6289 1.66174 23.8512 25.1998 0.000123 0.000432 4.28615 -14.3717 7.66792 
-84.1538 89.0969 -123.878 -87.3368 2.28936 -177.274 0.103456 1.85784 10.5485 2.52079 -6.11698 177.93 43.5 -4.2e-05 1e-05 -12.4939 -8.074 -1.1038 42.3722 1.9e-05 2.84217e-14 76.3249 -8.87901 7.28786 17.3 -3.55271e-15 3e-06 21.4546 -1e-06 0.003093 0.103456 1.85782 -10.5485 9.14361 11.7091 174.693 43.5 -2.7e-05 4e-06 -1.447 14.0371 3.55 42.3723 1.42109e-14 1e-05 83.675 23.8892 -16.7609 17.3 -6e-06 1.7e-05 21.4546 -1.9e-05 -0.003116 6.90197 -2.60373 -3e-06 7.63585 0.16044 -0.405102 12.5881 1e-05 8e-06 5.25683 0.327704 -0.807092 12.3432 -1.8e-05 -5e-06 4.93593 0.354013 -0.814106 25.8329 2.3e-05 7e-06 8.79046 4.39233 -9.41845 11.7666 -8e-06 -6e-06 -25.5892 2.74276 11.4209 19.7459 -1.48035 6.0001 -177.866 6.32258 -96.5559 11.2841 1.8e-05 -2e-05 20.5939 -26.3403 36.4197 33 -1.3e-05 1.9e-05 -14.4592 12.5523 -25.9604 25.2 3.2e-05 1.1e-05 0.431702 34.2818 -2.11162 19.7461 -1.48036 -6.00008 -173.276 -9.4408 85.1336 11.2841 0 -1e-06 17.2609 17.8008 -18.3351 33.0001 1.6e-05 -1e-06 -20.6921 1.7062 23.7877 25.1998 0.000123 0.000432 4.34236 -14.3627 7.66361 
-84.1655 89.0981 -123.868 -87.3331 2.22528 -177.266 0.103456 1.85784 10.5485 2.51687 -6.12211 177.933 43.5 -4.2e-05 1e-05 -12.4792 -8.06591 -1.10318 42.3722 1.9e-05 0 76.2955 -8.85465 7.27344 17.3 -1.06581e-14 3e-06 21.4546 -1e-06 0.003093 0.103456 1.85782 -10.5485 9.14835 11.696 174.709 43.5 -2.7e-05 4e-06 -1.44841 14.0531 3.54811 42.3723 -1.42109e-14 1e-05 83.6885 23.9059 -16.7866 17.3 -6e-06 1.7e-05 21.4546 -1.9e-05 -0.003116 6.90197 -2.60373 -3e-06 7.62294 0.16849 -0.411596 12.5881 1e-05 8e-06 5.23089 0.34261 -0.821243 12.3432 -1.8e-05 -5e-06 4.90983 0.367557 -0.829167 25.8329 2.3e-05 7e-06 8.84194 4.4595 -9.49895 11.7666 -8e-06 -6e-06 -25.3644 2.92707 11.3844 19.7459 -1.48035 6.0001 -177.918 6.32625 -96.6194 11.2841 1.8e-05 -2e-05 20.6144 -26.4549 36.4165 33 -1.3e-05 1.9e-05 -14.521 12.5107 -25.9816 25.2 3.2e-05 1.1e-05 0.13408 34.2476 -2.1287 19.7461 -1.48036 -6.00008 -173.344 -9.3761 85.1169 11.2841 -1.42109e-14 -1e-06 17.2807 17.8286 -18.3488 33.0001 1.6e-05 -1e-06 -20.6677 1.66063 23.7392 25.1998 0.000123 0.000432 4.29627 -14.3726 7.61435 
-84.1763 89.0996 -123.855 -87.3235 2.17494 -177.259 0.103456 1.85784 10.5485 2.50975 -6.12851 177.935 43.5 -4.2e-05 1e-05 -12.4881 -8.04712 -1.10241 42.3722 1.9e-05 2.84217e-14 76.2954 -8.8416 7.26965 17.3 -3.55271e-15 3e-06 21.4546 -1e-06 0.003093 0.103456 1.85782 -10.5485 9.14371 11.68 174.727 43.5 -2.7e-05 4e-06 -1.47752 14.0721 3.5456 42.3723 -1.42109e-14 1e-05 83.7126 23.8748 -16.8277 17.3 -6e-06 1.7e-05 21.4546 -1.9e-05 -0.003116 6.90197 -2.60373 -3e-06 7.62025 0.181823 -0.422089 12.5881 1e-05 8e-06 5.22542 0.367619 -0.844128 12.3432 -1.8e-05 -5e-06 4.90405 0.391041 -0.853567 25.8329 2.3e-05 7e-06 8.85384 4.50292 -9.54621 11.7666 -8e-06 -6e-06 -25.1569 3.06213 11.3412 19.7459 -1.48035 6.0001 -177.935 6.28569 -96.5861 11.2841 1.8e-05 -2e-05 20.3709 -26.4054 36.2201 33 -1.3e-05 1.9e-05 -14.4958 12.777 -25.979 25.2 3.2e-05 1.1e-05 0.153741 34.3649 -2.0001 19.7461 -1.48036 -6.00008 -173.378 -9.32296 85.0768 11.2841 -1.42109e-14 -1e-06 17.325 17.825 -18.3733 33.0001 1.6e-05 -1e-06 -20.714 1.64316 23.7245 25.1998 0.000123 0.000432 4.29379 -14.3693 7.61241 
-84.1857 89.1007 -123.839 -87.3061 2.12902 -177.253 0.103456 1.85784 10.5485 2.52166 -6.131 177.936 43.5 -4.2e-05 1e-05 -12.4741 -8.04224 -1.1016 42.3722 1.9e-05 0 76.2657 -8.8341 7.25965 17.3 0 3e-06 21.4546 -1e-06 0.003093 0.103456 1.85782 -10.5485 9.12236 11.6657 174.745 43.5 -2.7e-05 4e-06 -1.53783 14.0671 3.53643 42.3723 0 1e-05 83.7431 23.8777 -16.8498 17.3 -6e-06 1.7e-05 21.4546 -1.9e-05 -0.003116 6.90197 -2.60373 -3e-06 7.61715 0.188298 -0.430425 12.5881 1e-05 8e-06 5.21919 0.379823 -0.86177 12.3432 -1.8e-05 -5e-06 4.8977 0.402033 -0.871947 25.8329 2.3e-05 7e-06 8.86619 4.53548 -9.58899 11.7666 -8e-06 -6e-06 -24.9635 3.16568 11.3107 19.7459 -1.48035 6.0001 -177.942 6.26757 -96.5834 11.2841 1.8e-05 -2e-05 20.2404 -26.3775 36.1285 33 -1.3e-05 1.9e-05 -14.4969 12.8573 -25.96 25.2 3.2e-05 1.1e-05 0.0673855 34.3934 -1.94661 19.7461 -1.48036 -6.00008 -173.423 -9.28915 85.0423 11.2841 0 -1e-06 17.3103 17.8059 -18.3443 33.0001 1.6e-05 -1e-06 -20.6502 1.61904 23.6851 25.1998 0.000123 0.000432 4.2827 -14.3937 7.61847 
-84.1953 89.1018 -123.823 -87.2897 2.10637 -177.25 0.103456 1.85784 10.5485 2.52195 -6.13528 177.935 43.5 -4.2e-05 1e-05 -12.4816 -8.03398 -1.10077 42.3722 1.9e-05 2.84217e-14 76.2612 -8.86996 7.25538 17.3 0 3e-06 21.4546 -1e-06 0.003093 0.103456 1.85782 -10.5485 9.2071 11.6705 174.72 43.5 -2.7e-05 4e-06 -1.4196 14.0677 3.56651 42.3723 0 1e-05 83.6917 23.8579 -16.8623 17.3 -6e-06 1.7e-05 21.4546 -1.9e-05 -0.003116 6.90197 -2.60373 -3e-06 7.60973 0.194796 -0.438123 12.5881 1e-05 8e-06 5.20431 0.390917 -0.877993 12.3432 -1.8e-05 -5e-06 4.8827 0.411925 -0.88885 25.8329 2.3e-05 7e-06 8.8929 4.57738 -9.63996 11.7666 -8e-06 -6e-06 -24.7707 3.28338 11.287 19.7459 -1.48035 6.0001 -177.946 6.2739 -96.5892 11.2841 1.8e-05 -2e-05 20.2674 -26.3897 36.1406 33 -1.3e-05 1.9e-05 -14.6026 12.711 -25.935 25.2 3.2e-05 1.1e-05 0.160417 34.3239 -1.98797 19.7461 -1.48036 -6.00008 -173.51 -9.26576 85.0314 11.2841 1.42109e-14 -1e-06 17.3132 17.8835 -18.3473 33.0001 1.6e-05 -1e-06 -20.5828 1.60757 23.6585 25.1998 0.000123 0.000432 4.25889 -14.3968 7.60311 
-84.2101 89.1044 -123.808 -87.2755 2.08972 -177.247 0.103456 1.85784 10.5485 2.51855 -6.14807 177.946 43.5 -4.2e-05 1e-05 -12.4947 -8.02438 -1.09997 42.3722 1.9e-05 0 76.222 -8.83905 7.26582 17.3 0 3e-06 21.4546 -1e-06 0.003093 0.103456 1.85782 -10.5485 9.21429 11.6089 174.722 43.5 -2.7e-05 4e-06 -1.41213 14.0709 3.58603 42.3723 1.42109e-14 1e-05 83.6389 23.838 -16.8188 17.3 -6e-06 1.7e-05 21.4546 -1.9e-05 -0.003116 6.90197 -2.60373 -3e-06 7.60115 0.209249 -0.44549 12.5881 1e-05 8e-06 5.18696 0.418592 -0.894806 12.3432 -1.8e-05 -5e-06 4.86501 0.438215 -0.90737 25.8329 2.3e-05 7e-06 8.92165 4.64523 -9.69513 11.7666 -8e-06 -6e-06 -24.511 3.42756 11.2663 19.7459 -1.48035 6.0001 -177.983 6.27738 -96.5507 11.2841 1.8e-05 -2e-05 20.29 -26.4383 36.1892 33 -1.3e-05 1.9e-05 -14.7703 12.7496 -25.9496 25.2 3.2e-05 1.1e-05 0.0291302 34.3096 -1.95669 19.7461 -1.48036 -6.00008 -173.599 -9.21071 84.9742 11.2841 0 -1e-06 17.298 17.9187 -18.3538 33.0001 1.6e-05 -1e-06 -20.6582 1.56036 23.6608 25.1998 0.000123 0.000432 4.19454 -14.3698 7.52878 
-84.2348 89.1051 -123.792 -87.2576 2.05707 -177.244 0.103456 1.85784 10.5485 2.50113 -6.15013 177.955 43.5 -4.2e-05 1e-05 -12.5328 -8.01031 -1.09926 42.3722 1.9e-05 0 76.2023 -8.86456 7.26549 17.3 0 3e-06 21.4546 -1e-06 0.003093 0.103456 1.85782 -10.5485 9.15878 11.549 174.759 43.5 -2.7e-05 4e-06 -1.50412 14.0732 3.56551 42.3723 -1.42109e-14 1e-05 83.6662 23.8092 -16.8292 17.3 -6e-06 1.7e-05 21.4546 -1.9e-05 -0.003116 6.90197 -2.60373 -3e-06 7.64753 0.211141 -0.465297 12.5881 1e-05 8e-06 5.27984 0.419954 -0.934595 12.3432 -1.8e-05 -5e-06 4.95797 0.438495 -0.947018 25.8329 2.3e-05 7e-06 8.68722 4.82649 -9.844 11.7666 -8e-06 -6e-06 -24.1334 3.68041 11.3421 19.7459 -1.48035 6.0001 -177.39 6.34739 -95.9668 11.2841 1.8e-05 -2e-05 19.8023 -25.2855 35.4884 33 -1.3e-05 1.9e-05 -16.6481 12.3884 -25.6443 25.2 3.2e-05 1.1e-05 0.894915 34.1842 -2.1698 19.7461 -1.48036 -6.00008 -173.964 -9.05403 84.8101 11.2841 1.42109e-14 -1e-06 17.0638 18.083 -18.3717 33.0001 1.6e-05 -1e-06 -20.7188 1.4143 23.7583 25.1998 0.000123 0.000432 4.00468 -14.3701 7.46252 
